PathFileType	4	(X/Y/Z)	/Users/itak/Documents/Research/Walk-IL/dataset/trc/00365_00011.trc
DataRate	CameraRate	NumFrames	NumMarkers	Units	OrigDataRate	OrigDataStartFrame	OrigNumFrames
100.000000	100.000000	4	56	mm	100.000000	175	351
Frame#	Time	RPSI			LPSI			L3			STRN			T10			C7			CLAV			RBAK			LBAK			LSHO			LUPA			LAEL			LAOL			LWTS			LWPS			LFRA			LIFD			LHPS			LHTS			RSHO			RUPA			RAEL			RAOL			RWTS			RWPS			RFRA			RIFD			RHTS			RHPS			RBHD			LFHD			RFHD			LBHD			LHIP			RHIP			RASI			LASI			LKNE			LTHI			LANK			LTIP			LTOE			LMT1			LMT5			LHEE			RKNE			RTHI			RTIP			RTOE			RMT1			RMT5			RANK			RHEE			*53			*54			*55			
		X1	Y1	Z1	X2	Y2	Z2	X3	Y3	Z3	X4	Y4	Z4	X5	Y5	Z5	X6	Y6	Z6	X7	Y7	Z7	X8	Y8	Z8	X9	Y9	Z9	X10	Y10	Z10	X11	Y11	Z11	X12	Y12	Z12	X13	Y13	Z13	X14	Y14	Z14	X15	Y15	Z15	X16	Y16	Z16	X17	Y17	Z17	X18	Y18	Z18	X19	Y19	Z19	X20	Y20	Z20	X21	Y21	Z21	X22	Y22	Z22	X23	Y23	Z23	X24	Y24	Z24	X25	Y25	Z25	X26	Y26	Z26	X27	Y27	Z27	X28	Y28	Z28	X29	Y29	Z29	X30	Y30	Z30	X31	Y31	Z31	X32	Y32	Z32	X33	Y33	Z33	X34	Y34	Z34	X35	Y35	Z35	X36	Y36	Z36	X37	Y37	Z37	X38	Y38	Z38	X39	Y39	Z39	X40	Y40	Z40	X41	Y41	Z41	X42	Y42	Z42	X43	Y43	Z43	X44	Y44	Z44	X45	Y45	Z45	X46	Y46	Z46	X47	Y47	Z47	X48	Y48	Z48	X49	Y49	Z49	X50	Y50	Z50	X51	Y51	Z51	X52	Y52	Z52	X53	Y53	Z53	X54	Y54	Z54	X55	Y55	Z55	X56	Y56	Z56	

176	1.75	463.9981079101562	928.2738647460938	-83.36566162109375	335.1689758300781	936.4451904296875	-77.7578125	392.0575256347656	994.8009643554688	-69.58963012695312	379.6910095214844	1188.703491210938	-296.6611938476562	367.828369140625	1111.164794921875	-58.03718566894531	342.6704711914062	1357.879516601562	-91.19425964355469	367.7147521972656	1312.202514648438	-248.1204986572266	407.2625122070312	1219.545043945312	-43.06010818481445	240.28857421875	1316.72509765625	-92.43453216552734	194.7087249755859	1339.3740234375	-181.7704010009766	129.6833801269531	1218.102905273438	-197.8835601806641	124.7772979736328	1035.770385742188	-293.5513305664062	162.9670715332031	993.3251953125	-228.7379455566406	239.4764099121094	912.6593017578125	-487.6566772460938	180.8033752441406	874.9324340820312	-484.96923828125	140.0242614746094	960.2022094726562	-362.9137573242188	278.6021118164062	802.4124145507812	-598.55615234375	202.497802734375	823.7042236328125	-526.8026123046875	244.1825714111328	865.6355590820312	-550.7940063476562	511.381591796875	1352.5634765625	-128.7253723144531	570.49609375	1292.263549804688	-103.0179290771484	591.4613647460938	1028.40380859375	-50.21354293823242	497.9039916992188	1026.086181640625	-52.52802276611328	591.6896362304688	776.9293823242188	-105.3096237182617	638.6605834960938	780.9656982421875	-44.86770629882812	610.09521484375	960.478759765625	-53.65492630004883	597.4273681640625	609.8637084960938	-52.98101806640625	602.3827514648438	663.177734375	-81.77167510986328	637.405517578125	695.9243774414062	-30.30192184448242	433.367919921875	1560.993286132812	-117.2177200317383	309.9811096191406	1598.35546875	-280.7879638671875	411.0729675292969	1600.3291015625	-273.8804016113281	290.4509582519531	1550.608764648438	-101.3240661621094	224.0496978759766	888.523681640625	-161.4485168457031	564.6354370117188	880.2127075195312	-175.3858642578125	515.8075561523438	920.0859375	-273.0164489746094	276.0299987792969	914.882568359375	-285.3323364257812	266.4551391601562	433.4406127929688	-176.1932067871094	248.2934112548828	572.3804931640625	-186.2927551269531	278.0681762695312	53.42414474487305	33.07827377319336	267.6076965332031	226.3690948486328	-78.10773468017578	379.2917175292969	36.96399307250977	-152.7535095214844	402.6316528320312	27.00053215026855	-73.67173767089844	291.2122192382812	41.72248458862305	-90.32279968261719	335.7463989257812	57.02991104125977	82.43633270263672	584.8450317382812	458.7743225097656	-368.93408203125	585.9561767578125	706.708740234375	-299.1887817382812	594.8934936523438	359.7796325683594	-424.1178588867188	575.9391479492188	131.5904998779297	-678.9266357421875	531.5518188476562	104.7535934448242	-633.185302734375	641.1121826171875	77.07573699951172	-600.08251953125	617.9788208007812	53.92160034179688	-502.3126831054688	567.959228515625	40.06056594848633	-454.9731140136719	nan	nan	nan	nan	nan	nan	nan	nan	nan	
177	1.76	468.7056579589844	927.1328735351562	-92.32533264160156	340.0597534179688	935.58984375	-86.10747528076172	396.7408142089844	993.1253662109375	-78.33818054199219	383.404052734375	1187.8310546875	-304.658203125	372.6488647460938	1109.433837890625	-66.22635650634766	347.2506103515625	1356.417114257812	-98.48349761962891	371.5508728027344	1311.2265625	-255.7292938232422	412.1780700683594	1217.91162109375	-51.39214324951172	244.9625091552734	1315.124633789062	-99.29901123046875	198.7914733886719	1337.808715820312	-188.3426208496094	134.1646423339844	1216.225952148438	-203.7210388183594	128.5819549560547	1033.305297851562	-298.0835571289062	167.8274993896484	991.4410400390625	-233.5270538330078	240.7329406738281	909.0746459960938	-492.9115600585938	182.2971801757812	871.1022338867188	-488.9821166992188	143.0445556640625	957.2142333984375	-367.0838928222656	278.4667053222656	798.1586303710938	-603.6397705078125	204.3747406005859	819.4884033203125	-530.5374755859375	244.5415496826172	861.5703735351562	-555.7533569335938	515.8449096679688	1351.425170898438	-136.9011535644531	575.1832885742188	1290.944091796875	-111.7369155883789	596.6959228515625	1026.681762695312	-60.70916366577148	503.0535583496094	1024.45556640625	-62.07430648803711	596.0248413085938	775.309326171875	-116.48291015625	643.891845703125	779.3968505859375	-56.7454719543457	615.2719116210938	958.8136596679688	-64.65184020996094	602.6522216796875	608.2196044921875	-64.28411102294922	607.0023803710938	661.4907836914062	-93.25630950927734	643.0423583984375	694.4962768554688	-42.34614562988281	437.267333984375	1560.1142578125	-124.7264785766602	313.0408935546875	1597.151611328125	-287.7290344238281	414.1833190917969	1599.417236328125	-281.260498046875	294.4229125976562	1549.31298828125	-108.1753921508789	228.3488464355469	887.7039794921875	-169.0648956298828	568.835205078125	879.0263061523438	-184.9567260742188	519.677490234375	919.0654907226562	-282.2888793945312	279.6515502929688	913.671875	-293.3515930175781	269.1378173828125	432.7401733398438	-181.3885803222656	251.4265747070312	571.5985107421875	-192.1541137695312	278.9194641113281	55.10013580322266	32.84180450439453	269.3098754882812	226.8832702636719	-80.57439422607422	379.2659301757812	36.84569549560547	-152.9992828369141	402.8546142578125	27.04905891418457	-74.02798461914062	291.4597473144531	42.15130233764648	-90.48884582519531	336.7463989257812	59.43804931640625	81.99609375	586.6223754882812	458.2076110839844	-380.3997192382812	589.278564453125	706.4017333984375	-309.7084045410156	595.6524658203125	357.9898071289062	-434.6888427734375	572.9302368164062	125.5733032226562	-684.321044921875	529.439697265625	99.22974395751953	-637.4854736328125	639.640380859375	72.96195983886719	-605.5314331054688	618.3666381835938	51.62426376342773	-507.2351379394531	569.0794677734375	38.40739440917969	-459.0310363769531	nan	nan	nan	nan	nan	nan	nan	nan	nan	
178	1.77	473.465576171875	926.1516723632812	-101.4774856567383	344.9981689453125	934.831787109375	-94.58266448974609	401.4709777832031	991.5703125	-87.19503784179688	387.1788330078125	1187.121704101562	-312.7135009765625	377.5369873046875	1107.875122070312	-74.40085601806641	351.9016723632812	1355.090942382812	-105.8115615844727	375.4490661621094	1310.41064453125	-263.3894348144531	417.1678466796875	1216.404907226562	-59.77680587768555	249.7203521728516	1313.66162109375	-106.1942367553711	202.9522705078125	1336.373901367188	-194.954345703125	138.6986999511719	1214.484130859375	-209.5780334472656	132.4454193115234	1030.872924804688	-302.4242858886719	172.7571105957031	989.677001953125	-238.0851898193359	241.9053192138672	905.0459594726562	-497.7104797363281	183.7434997558594	866.8723754882812	-492.4201049804688	146.0675811767578	954.104248046875	-370.8992309570312	278.1502380371094	793.1771850585938	-607.996826171875	206.071533203125	814.7734985351562	-533.622314453125	244.7863159179688	856.9116821289062	-560.128173828125	520.375732421875	1350.441772460938	-145.1307067871094	579.9161376953125	1289.76220703125	-120.5070648193359	601.9625854492188	1025.087890625	-71.42160797119141	508.2320861816406	1022.917419433594	-71.88176727294922	600.4542236328125	773.9033813476562	-128.1584777832031	649.1322631835938	777.9501953125	-69.06416320800781	620.4737548828125	957.2730712890625	-75.91238403320312	607.9429931640625	606.6657104492188	-76.28223419189453	611.9474487304688	660.289794921875	-105.607421875	648.6964721679688	693.147705078125	-54.95680999755859	441.2074890136719	1559.38720703125	-132.2370147705078	316.1480712890625	1596.108154296875	-294.67431640625	417.3356628417969	1598.669921875	-288.6326599121094	298.4259948730469	1548.154174804688	-115.0496597290039	232.7134552001953	886.89892578125	-176.7891082763672	573.0679931640625	878.0093994140625	-194.7123718261719	523.5878295898438	918.2720947265625	-291.7674865722656	283.3085327148438	912.5706176757812	-301.5017395019531	272.0588073730469	432.0680236816406	-186.9907073974609	254.7036743164062	570.8316650390625	-198.3643493652344	279.8572387695312	57.13119125366211	32.52792739868164	271.132080078125	227.5779113769531	-83.28433990478516	379.242919921875	36.74549102783203	-153.2295074462891	403.0954284667969	27.08733558654785	-74.39029693603516	291.7200622558594	42.62205505371094	-90.68398284912109	337.8649597167969	62.24596786499023	81.4306640625	588.3280639648438	457.7350158691406	-391.7852783203125	592.4828491210938	706.1187133789062	-320.3130187988281	596.2705688476562	356.182373046875	-445.0187377929688	569.8599243164062	118.7655410766602	-688.7704467773438	527.2866821289062	93.04695129394531	-640.76513671875	638.1117553710938	68.38330078125	-609.86328125	618.7900390625	49.28213500976562	-511.0130615234375	570.220458984375	36.86269760131836	-461.9521789550781	nan	nan	nan	nan	nan	nan	nan	nan	nan	
179	1.78	478.2926330566406	925.3430786132812	-110.8314361572266	349.9889221191406	934.1693115234375	-103.1744995117188	406.2611999511719	990.1705932617188	-96.19037628173828	390.9830932617188	1186.593872070312	-320.8170776367188	382.5079956054688	1106.518310546875	-82.56216430664062	356.6229858398438	1353.926635742188	-113.1732406616211	379.3896484375	1309.77490234375	-271.0950317382812	422.2412414550781	1215.050903320312	-68.20000457763672	254.5612182617188	1312.359252929688	-113.1025619506836	207.1743621826172	1335.090209960938	-201.5825805664062	143.2691955566406	1212.898071289062	-215.4333953857422	136.375	1028.513793945312	-306.5880737304688	177.7496643066406	988.06103515625	-242.4331512451172	243.0021820068359	900.59423828125	-502.0391540527344	185.1458435058594	862.2813110351562	-495.2770690917969	149.0884399414062	950.9088745117188	-374.3724670410156	277.6659851074219	787.4865112304688	-611.5936889648438	207.5074310302734	809.6091918945312	-536.0637817382812	244.9310455322266	851.680908203125	-563.8970336914062	524.9697875976562	1349.630493164062	-153.4257202148438	584.697021484375	1288.736083984375	-129.3514556884766	607.2568359375	1023.645202636719	-82.33574676513672	513.4422607421875	1021.498046875	-81.93993377685547	604.976806640625	772.7489624023438	-140.3332214355469	654.3701782226562	776.6478881835938	-81.80970764160156	625.6986694335938	955.8807983398438	-87.42182159423828	613.274169921875	605.2321166992188	-88.99709320068359	617.1447143554688	659.5308837890625	-118.7691345214844	654.3389892578125	691.8966674804688	-68.11737823486328	445.1879577636719	1558.830810546875	-139.7461853027344	319.3040771484375	1595.256591796875	-301.6181640625	420.5303649902344	1598.112548828125	-295.9942321777344	302.4625854492188	1547.159790039062	-121.943115234375	237.1460113525391	886.1119995117188	-184.6105194091797	577.3348999023438	877.1709594726562	-204.6556549072266	527.5133056640625	917.7117919921875	-301.4518127441406	286.9960632324219	911.6038818359375	-309.7789916992188	275.1846008300781	431.43017578125	-193.0477905273438	258.09619140625	570.0867309570312	-204.9622039794922	280.8997192382812	59.56167221069336	32.11006927490234	273.056396484375	228.4861145019531	-86.27484893798828	379.2189331054688	36.66958618164062	-153.4309387207031	403.3551330566406	27.10705184936523	-74.76167297363281	291.9906311035156	43.1281623840332	-90.91162109375	339.1274108886719	65.50959777832031	80.69466400146484	589.9937133789062	457.3268432617188	-402.9589233398438	595.5878295898438	705.8252563476562	-330.9660339355469	596.802734375	354.4350891113281	-455.0296630859375	566.8720092773438	111.4973526000977	-692.5320434570312	525.1959228515625	86.54851531982422	-643.3189697265625	636.5808715820312	63.564697265625	-613.3358764648438	619.22900390625	47.04143905639648	-513.9427490234375	571.32373046875	35.56478500366211	-464.0833740234375	nan	nan	nan	nan	nan	nan	nan	nan	nan	
